<svg width="51" height="32" viewBox="0 0 51 32" fill="none" xmlns="http://www.w3.org/2000/svg">
<path d="M7.2085 0.586212H43.135C47.0449 0.586212 50.2267 3.29406 50.2267 6.62243V25.7514C50.2267 29.0798 47.0449 31.7876 43.135 31.7876H7.2085C3.29856 31.7876 0.116776 29.0798 0.116776 25.7514V6.62243C0.116776 3.29406 3.29856 0.586212 7.2085 0.586212V0.586212ZM32.0413 10.189L39.502 16.5384L32.8673 22.1848C32.2938 22.6729 32.2938 23.4642 32.8673 23.9515C33.4399 24.4396 34.3696 24.4396 34.9432 23.9515L42.6162 17.4213C43.1898 16.9332 43.1898 16.1428 42.6162 15.6547L34.1181 8.42238C33.5446 7.93429 32.6148 7.93429 32.0413 8.42238C31.4687 8.90964 31.4687 9.70092 32.0413 10.189V10.189ZM19.9317 7.24962L27.6948 25.9563C27.965 26.6077 28.8037 26.9483 29.5681 26.7184C30.3325 26.4886 30.7337 25.7747 30.4636 25.1242L22.7005 6.41753C22.4304 5.76701 21.5926 5.42551 20.8272 5.6554C20.0629 5.88529 19.6616 6.59911 19.9317 7.24962V7.24962ZM7.72722 16.7192L16.2253 23.9515C16.7989 24.4396 17.7286 24.4396 18.3022 23.9515C18.8747 23.4642 18.8747 22.6729 18.3022 22.1848L10.8415 15.8354L17.4761 10.189C18.0497 9.70092 18.0497 8.90964 17.4761 8.42238C16.9036 7.93429 15.9738 7.93429 15.4003 8.42238L7.72722 14.9525C7.1537 15.4406 7.1537 16.2311 7.72722 16.7192V16.7192Z" fill="white"/>
</svg>
