<svg width="29" height="41" viewBox="0 0 29 41" fill="none" xmlns="http://www.w3.org/2000/svg">
<path d="M20.7696 34.315V35.8636C20.7696 37.0959 19.8303 38.121 18.608 38.2955L18.2119 39.7023C17.9969 40.4656 17.284 41 16.4578 41H12.5309C11.7047 41 10.9918 40.4656 10.7768 39.7023L10.392 38.2955C9.15845 38.1101 8.21915 37.0959 8.21915 35.8527V34.3041C8.21915 33.4753 8.90948 32.8101 9.76956 32.8101H19.2192C20.0792 32.821 20.7696 33.4862 20.7696 34.315ZM28.0463 13.4422C28.0463 16.9646 26.5978 20.1599 24.2438 22.5045C22.4558 24.293 21.3015 26.5722 20.9167 29.0041C20.7469 30.051 19.8076 30.8253 18.6986 30.8253H10.2901C9.1924 30.8253 8.24178 30.0619 8.08335 29.015C7.68726 26.5831 6.52162 24.2712 4.73355 22.4936C2.42491 20.1817 0.987668 17.0409 0.953718 13.5839C0.8745 6.32098 6.87244 0.442996 14.4095 0.388469C21.9352 0.333942 28.0463 6.20102 28.0463 13.4422ZM16.0278 5.53579C16.0278 4.7288 15.3488 4.06357 14.5 4.06357C9.11318 4.06357 4.72224 8.28394 4.72224 13.4858C4.72224 14.2928 5.40125 14.958 6.25001 14.958C7.08746 14.958 7.77779 14.3037 7.77779 13.4858C7.77779 9.90884 10.7994 7.00802 14.5 7.00802C15.3488 7.00802 16.0278 6.3537 16.0278 5.53579Z" fill="white"/>
</svg>
